<svg xmlns="http://www.w3.org/2000/svg" viewBox="112 133 130 130">
  <path fill="#FCD236" d="M 241.246094 205.335938 C 241.246094 199.714844 236.675781 195.144531 231.058594 195.144531 C 222.796875 195.144531 219.089844 204.449219 218.148438 207.300781 C 211.617188 227.128906 195.839844 239.445312 176.976562 239.445312 C 154.210938 239.445312 135.691406 220.925781 135.691406 198.160156 C 135.691406 175.394531 154.210938 156.875 176.976562 156.875 C 188.859375 156.875 200.203125 162.066406 207.996094 170.917969 L 191 187.917969 C 187.6875 183.386719 182.574219 180.792969 176.976562 180.792969 C 167.398438 180.792969 159.609375 188.582031 159.609375 198.160156 C 159.609375 207.734375 167.398438 215.527344 176.976562 215.527344 C 188.53125 215.527344 193.496094 205.683594 195.429688 199.816406 C 201.242188 182.179688 214.894531 171.226562 231.058594 171.226562 C 234.605469 171.226562 238.027344 171.773438 241.246094 172.78125 L 241.246094 164.597656 C 241.246094 147.636719 227.496094 133.890625 210.535156 133.890625 L 143.414062 133.890625 C 126.457031 133.890625 112.707031 147.636719 112.707031 164.597656 L 112.707031 231.71875 C 112.707031 248.679688 126.457031 262.429688 143.414062 262.429688 L 210.535156 262.429688 C 227.496094 262.429688 241.246094 248.679688 241.246094 231.71875 Z M 241.246094 205.335938"/>
</svg>
